# File produced by Open Asset Import Library (http://www.assimp.sf.net)
# (assimp v5.3.0)

mtllib finger.mtl

# 134 vertex positions
v -7.08948326 50.3271446 741.815125
v -13.4665031 52.4150658 736.504333
v -10.9862223 49.8025169 743.596985
v -2.07104611 48.931736 748.778687
v -9.95811844 58.1324387 727.047729
v -14.3219824 62.5988159 714.962097
v -14.7711 58.2199402 726.292358
v -10.0950489 58.1850014 715.441956
v 9.99383926 58.9340363 713.104919
v -10.2456026 58.7972679 713.44281
v -10.5012016 59.220047 711.212097
v 13.2652149 52.2139053 737.072205
v 8.25356674 51.7751579 738.259766
v 11.0536604 49.7965164 743.546387
v 1.97452664 48.8111229 749.194397
v -15.0972214 62.7070007 713.40979
v -13.0990543 77.0614319 677.500488
v -13.0990543 54.5499992 677.500488
v -29.9475384 76.3586655 677.500488
v -30.0188999 55.2935104 677.500488
v 26.500946 54.5499992 677.500488
v 26.500946 77.0614319 677.500488
v 27.5009727 54.5499992 677.500488
v 27.5009727 77.0614319 677.500488
v 28.4280243 54.6968307 677.500488
v 28.4280243 76.9145966 677.500488
v 29.264328 55.1229477 677.500488
v 29.264328 76.4884796 677.500488
v 29.9280243 55.786644 677.500488
v 29.9280243 75.8247833 677.500488
v 30.5009727 57.5499992 677.500488
v 30.4464951 74.7464752 677.500488
v 30.3541412 56.6229477 677.500488
v -30.4195557 74.8119736 682.500488
v -30.465065 72.0779953 682.525085
v -30.3315334 57.9055061 682.465393
v 30.4215012 56.7994576 682.500549
v 30.3197269 57.9204865 682.459106
v 30.3885403 70.0386429 682.472961
v 29.7260475 76.6363068 682.500488
v -11.6892757 42.290287 741.840942
v 12.024437 42.2927094 740.796997
v -7.65113878 42.2734833 749.193359
v 7.74558544 42.3432922 749.191223
v 2.52263641 42.3362885 752.973022
v -0.897880316 42.2388115 753.213806
v -4.67807436 48.2510262 751.898438
v 6.37684774 48.3575897 750.684021
v 1.7311461 47.9859085 753.195618
v 9.69277382 52.3138618 731.572815
v -9.6625576 52.0672531 732.25061
v -4.78943539 47.4191246 745.02124
v 4.08590317 46.9514771 746.305847
v -0.598192155 46.1164246 748.600525
v -10.0950489 61.9437714 716.810059
v -10.0137262 61.9440994 716.806519
v -16.5187855 65.7642059 705.667175
v -11.9241133 66.5280533 704.215027
v -19.9718266 69.1910095 696.286438
v -18.5133896 71.6997375 690.005493
v -24.3152618 71.8773117 689.126282
v -24.9872704 74.459465 682.480896
v -29.4768486 74.0160751 682.95929
v -24.7029247 74.4228287 682.518494
v -24.7190971 74.431427 682.500488
v -10.190711 58.836628 714.124451
v -10.1352043 58.7390099 714.865906
v -10.0891562 58.6413078 715.608032
v -10.2556658 58.9341469 713.383728
v -14.0381804 61.2030106 696.149963
v -10.0854731 58.6413078 715.608032
v -10.1321754 58.7390175 714.865845
v -10.1889095 58.8366356 714.12439
v 15.3115759 72.1861725 688.669128
v 19.3139591 74.3976364 682.58313
v 18.3446445 63 682.500488
v 11.2351713 61.1705246 696.397949
v 19.3688145 74.2718277 682.500488
v 10.277647 66.9198761 703.138733
v -23.5834465 63 682.500488
v 10.0063334 58.3091583 726.572571
v 24.3399029 66.6590805 691.70752
v 15.9498692 64.2986679 698.644531
v 15.1581507 57.7685242 716.592224
v 24.324791 70.16185 682.535889
v 27.2260628 68.8290939 685.760925
v 24.1701698 56.5853539 690.245728
v -22.0263672 56.4543839 691.47345
v 27.9277611 57.4797821 684.931519
v 28.9152126 57.4999962 682.500549
v 14.9197798 65.7243042 705.865295
v 17.3110523 69.6893158 694.962769
v 23.8718853 74.2769394 682.577759
v 14.8103638 57.978157 726.794495
v -29.9260788 55.786644 682.500488
v 29.9280243 55.786644 682.500488
v -30.3521976 56.6229477 682.500488
v 29.264328 55.1229477 682.500488
v -29.2623825 55.1229477 682.500488
v 27.5009727 54.5499992 682.500488
v -28.1840763 54.6044769 682.500488
v 28.4280243 54.6968307 682.500488
v -28.1245823 77.0116806 682.500488
v -29.5809669 76.2660065 682.500488
v -14.7831869 52.1820412 718.308594
v 14.8719721 52.5231133 716.583252
v 14.7977295 49.7244225 726.066589
v -14.7168255 48.849453 728.138367
v 22.1729927 55.1616898 702.840637
v -15.9933453 54.5402374 705.888428
v -12.8406591 43.3541183 738.406128
v 11.6259451 54.5499992 661.500488
v 10.5009451 54.5499992 673.000488
v 11.0634451 77.0614319 661.500488
v 10.5009451 77.0614319 673.000488
v -12.0990543 54.5499992 669.900513
v -13.0990543 77.0614319 669.900513
v -10.0990543 77.0614319 671.4505
v -10.0990543 54.5499992 673.000488
v -24.8249435 57.3833694 688.57312
v -19.0553055 56.1506386 698.55426
v -15.7907104 54.4786072 708.984863
v -3.59917974 42.8086243 752.678406
v 13.4268541 44.4023514 736.86853
v 18.4746227 53.772995 712.217651
v 24.6595345 56.9550858 690.869751
v 22.7973728 63.0513496 700.902405
v 19.9514408 60.032959 709.391663
v -1.45529199 47.5058708 753.421265
v -7.98600769 48.5354729 748.809814
v 12.1884451 77.0614319 658.500488
v 26.500946 77.0614319 658.500488
v 26.500946 54.5499992 658.500488
v 12.1884451 54.5499992 658.500488

# 0 UV coordinates

# 231 vertex normals
vn 0.0274214037 0.941085398 0.337055475
vn -0.0315486789 0.975395441 0.218193531
vn -0.0393684134 0.932563305 0.358853459
vn -0.00157048623 0.956127346 0.292947173
vn -0.00352367293 0.982429743 0.186599553
vn 0.000948549714 0.936718285 0.350082755
vn 0.0885680467 0.947365344 0.307659864
vn -0.483510941 0.822757185 0.298810631
vn 0 0 -1
vn 2.34568793e-13 7.3541679e-15 -1
vn -0.995894492 0.0157755166 -0.0891361609
vn -0.99502039 0.00337080704 -0.0996142924
vn -0.99827224 -0.00916122459 -0.0580401085
vn 0.995370209 0.0914601758 0.02954931
vn 0.999300599 -0.00571699068 0.0369536541
vn 0.999887645 0.00316764438 0.014652635
vn 0.989519835 0.098921895 0.105190143
vn 1.62261279e-06 -0.999997377 -0.00228605326
vn 0.00453479681 -0.999954939 0.00833688211
vn 0.00453436375 -0.999979973 0.00441073207
vn 0.0249027405 -0.998416543 -0.0504405424
vn -0.0192257147 0.980058789 0.197775453
vn 0.00664479285 0.975821197 0.218469426
vn 0.0174265858 0.969687939 0.24372448
vn 0.00819559488 0.986887097 0.161203906
vn 0.0278103389 0.97621268 0.215024292
vn -0.0626457185 0.864193916 0.499243855
vn -0.11683841 0.868491948 0.481736958
vn 0.00416496629 0.94131577 0.337501496
vn 4.6803948e-06 0.939694524 0.342014849
vn 4.82091673e-06 0.939693272 0.342018396
vn 9.93517187e-06 0.939691484 0.342023283
vn 1.47583232e-05 0.939702213 0.341993839
vn -0.00734294811 0.937105715 0.348968446
vn 0.0097934911 0.949337006 0.31410715
vn 0.00650326768 0.947061956 0.3209849
vn -0.0457440726 0.936433315 0.3478508
vn -0.0424679294 0.93330282 0.356570274
vn -0.0474578403 0.931363761 0.360983849
vn -0.0268929321 0.93046242 0.365399033
vn -0.026729485 0.930858672 0.364400446
vn -0.0527134761 0.929000139 0.366305888
vn 0.0688086897 0.922933459 0.37876001
vn 0.997252941 0.00685874466 -0.0737532079
vn 0.998077989 -0.000307007169 -0.0619701035
vn 0.996226847 0.0167573374 -0.0851540267
vn 0.99340415 0.0416415706 -0.10683722
vn 0.989585698 0.075104855 -0.122798473
vn 0.971981347 -0.0335072912 -0.232657582
vn 0.993708968 0.0260255672 -0.108927563
vn 0 0.991445065 0.130524635
vn 0.00013272182 0.991446078 0.13051708
vn 0.000132803252 0.991445541 0.130521059
vn 0.000223062525 0.991446376 0.130514622
vn 0.000222841569 0.99144721 0.130508214
vn -0.84553045 0.0757394508 -0.528527975
vn -0.890799344 0.010924262 -0.454265535
vn -0.778030992 0.0706927031 -0.624235809
vn -0.948901474 0.160517856 -0.271698385
vn 0.820334852 0.0150962453 -0.571684241
vn 0.771416903 0.0934241414 -0.629434586
vn 0.915748358 0.180245623 -0.359049439
vn 0.998039424 0.00182543276 -0.0625616312
vn 0.996648371 -0.0165245254 -0.0801181942
vn 0.996111393 -0.0350437127 -0.0808334425
vn 0.995716572 0.0365315378 -0.0849349573
vn -0.998473287 0.0551269464 0.00348412548
vn -0.999238491 0.0389226079 0.00273297844
vn 0.0420416221 -0.341658533 0.938883364
vn 0.00128461921 -0.342024863 0.939690053
vn 0 -0.342010498 0.939696133
vn -0.966841638 -0.13184385 -0.218710974
vn -0.854780376 0.498670965 -0.143797785
vn -0.840790212 -0.144024581 -0.521851301
vn -0.440666884 0.572999954 -0.691001952
vn 0.104970858 0.117407009 -0.987520516
vn 0.665256143 0.38838461 -0.637645364
vn 0.810911536 -0.00376450783 -0.58515662
vn 0.84308666 0.521335959 -0.131961092
vn 0.93594569 -0.201892748 -0.288521975
vn 0.999921441 0.00428694719 -0.0117780957
vn 0.999182284 0.038728673 -0.0116133904
vn 0.0190066267 0.939291596 0.342593193
vn 0.0321114473 0.933724761 0.356548697
vn 0.0325891711 0.933710575 0.356542498
vn 0.0226971917 0.930997133 0.364320099
vn -0.00164589193 -0.985937476 -0.167106435
vn -0.000501739851 -0.987344384 -0.158590198
vn -0.0068372637 -0.999915123 -0.011091602
vn 0.0339993797 0.935294211 0.352233946
vn 0.0574842393 0.93411088 0.352324337
vn 0.0318941735 0.93248117 0.35980773
vn 0.0251294579 0.933029294 0.358921736
vn 0.0486449003 0.937345266 0.344989181
vn 0.0375224948 0.93710351 0.347028971
vn 0 0 1
vn -5.09144229e-07 -3.66987842e-05 1
vn -5.14612282e-07 -3.4816112e-05 1
vn 0.0179533623 0.0385695063 0.999094605
vn 2.26072755e-15 2.23975596e-13 1
vn -0.000405682658 0.0273448378 0.999625981
vn -0.133011967 -0.0145986797 0.991006911
vn 0 -0.00157720107 0.999998748
vn 0.000408663444 -3.71315837e-05 0.99999994
vn 0.0032710603 0.903601825 0.428360909
vn -0.00198928965 -0.54952389 0.835475624
vn -0.00187816261 -0.00247884472 0.999995172
vn 0.000232299353 0.0358007401 0.999358892
vn 0.00191702473 0.0279742181 0.999606788
vn 0.0142983422 -0.00273738196 0.999894023
vn 0.0101913894 -0.00905240886 0.999907076
vn -2.19450272e-13 -3.3369607e-13 1
vn -0.0972352996 -0.257686228 0.961323619
vn 0.00347939623 -0.00200668606 0.999991953
vn 0.03758258 0.5321154 0.845837295
vn -0.427135557 0.0152378855 0.904059172
vn -2.78057742e-05 0.991158962 0.132679731
vn 0.00182043412 0.99149847 0.130105481
vn -6.16676425e-06 0.991446733 0.130511984
vn 0 0.991444826 0.130526364
vn -0.00543907518 -0.959079802 -0.283083647
vn 0.00553453667 -0.94702661 -0.321107328
vn 0.000335246907 -0.982095361 -0.188384026
vn 0.00109241577 -0.982427955 -0.186639056
vn 0.00730356062 -0.993774235 -0.111172892
vn -0.000680406753 -0.991335392 -0.131353304
vn -0.00521757733 -0.892401874 -0.451211363
vn 0.00787009019 -0.88104099 -0.47297442
vn -0.0127534289 -0.956355572 -0.29192704
vn -0.994208515 -0.0682584792 -0.0830072612
vn 0.0408581123 0.868827879 0.493425548
vn 0.0372076482 0.869858742 0.491895646
vn -0.994941473 -0.0248609055 -0.0973312333
vn -0.998805881 0 -0.0488546379
vn 0.45892182 0.0203861669 -0.888242722
vn -0.999014795 -0.0443781093 0
vn -0.991454244 -0 -0.130454928
vn 0.839709878 -0.0373014882 -0.541752577
vn -0.736301422 -0.198577121 0.646859586
vn -0.448260456 -0.881178796 0.150288045
vn -0.921891153 0.0109894117 0.3872931
vn -0.493285328 -0.869738758 0.0149698518
vn -0.980939507 -0.184648618 0.0605190359
vn -0.268270284 -0.855315328 0.443245739
vn 0.171831638 -0.892161846 -0.417757303
vn 0.305396497 -0.952003777 -0.0205366891
vn 0.599149823 -0.800624192 0.00450883014
vn 0.28804937 -0.951381326 0.109092467
vn 0.447911948 -0.877971292 0.168941557
vn 0.984917819 0.0175811425 0.172127351
vn 0.979545116 -0.0285870153 0.199183807
vn 0.9477759 0.00334249181 0.318919569
vn 0.931596339 -0.0577690154 0.358874649
vn 0.821749389 0.0618660785 0.566480815
vn 0.776626766 -0.0434480011 0.628460944
vn 0.721614897 -0.00489041116 0.692277431
vn 0.719257176 -0.00629699416 0.694715381
vn 0.875220835 0.0187908933 0.483358443
vn 0.900729835 -0.00782644656 0.434309214
vn 0.158670455 0.90977484 0.383579731
vn 0.114754207 0.923224568 0.366725922
vn -0.993330538 0.0229543839 0.112993635
vn -0.984304667 -0.0117354337 0.176086977
vn -0.952723682 0.0274915304 0.302591771
vn -0.939164698 -0.00628637755 0.343409538
vn -0.864019692 0.0267053675 0.502749205
vn -0.853259087 0.0101059806 0.521389306
vn -0.766429067 0.00243706047 0.642324328
vn -0.741778791 0.0188009944 0.670381069
vn -0.389826983 -0.00754905352 0.920857191
vn -0.99960947 -0.021539202 0.0178028196
vn 0.992697716 -0.0121046202 0.120019488
vn 0.987368882 0.016321674 0.157595173
vn 0.944987476 0.0110294903 0.32692048
vn 0.941979408 -0.00112431741 0.335668862
vn 0.889636934 -0.0511763617 0.453791976
vn 0.830554247 0.0513678379 0.55456382
vn 0.585206032 -0.0673944652 0.808079123
vn 0.473381191 0.0316351168 0.880289435
vn 0.0749104843 -0.0287786741 0.996774912
vn 0.0710711852 -0.0317495205 0.996965826
vn -0.206284478 -0.0603010617 0.976632237
vn -0.417800665 0.0472007431 0.907311797
vn -0.650417745 -0.0201227944 0.759310126
vn -0.682056487 0.00831088237 0.731252313
vn -0.868275523 -0.0160661656 0.495822042
vn -0.876124263 -0.0304698832 0.48112151
vn -0.942711532 0.0102806538 0.333450496
vn -0.948025882 0.0013044948 0.318190515
vn -0.986210465 -0.0341286734 0.161938876
vn -0.990089595 0.0216028877 0.138765514
vn -0.999975383 -0.0047813165 0.00512983184
vn 0.979409993 0.171956047 0.105769277
vn 0.996756375 0.0736387968 0.032465551
vn 0.99940598 -0.00454273401 0.034162309
vn 0.99848175 -0.0544609986 -0.0082555199
vn 0.869682968 0.0907802805 0.485191166
vn 0.856739998 0.125355676 0.500282407
vn 0.977087736 -0.133516997 0.165749282
vn -0.082259886 0.815363228 0.57307601
vn -0.270593047 0.888085604 0.371595621
vn -0.664470971 0.645356536 0.376819968
vn 0 1 0
vn -0.0290440731 0.994229436 0.103267819
vn 0.00615364499 0.999460161 0.0322724506
vn 0.00648572668 0.999545634 0.0294354316
vn -0.0414003059 0.992555976 -0.114536703
vn 0 0.996404886 0.0847187713
vn -0.455176622 0.889004827 0.0498465486
vn -0.863972068 0.498282045 0.0725758821
vn 0.900716722 0.433081716 -0.0339066498
vn 0.704494059 0.704494059 -0.0858847946
vn 0.452935398 0.88893801 -0.0681081638
vn 0.156423315 0.987585723 0.0143582178
vn 1 0 0
vn 0 -1 0
vn -0.000978303491 -0.999967992 0.00794382952
vn -0.0435799323 -0.991734982 -0.120675176
vn 0.156435475 -0.987688184 0
vn 0.453989595 -0.891007006 0
vn 0.707106769 -0.707106769 0
vn 0.898970842 -0.438008517 0
vn 0.890999794 -0.4539859 0.00402310537
vn 0.987658262 -0.156430736 -0.00778338965
vn -0.997429073 0.0141487671 -0.0702501684
vn -0.88933593 -0.453140169 0.0612015724
vn -0.70469141 -0.70469141 0.082583487
vn -0.433068454 -0.900689006 0.0348000266
vn 0.0748538151 -0.0684980154 -0.994839132
vn -0.982872188 0 -0.184288532
vn -0.936073005 -0.0233899411 -0.351027369

# Mesh '' with 264 faces
usemtl DefaultMaterial
f  1//1 2//1 3//1
f  1//2 3//2 4//2
f  5//3 6//3 7//3
f  8//4 9//4 10//4
f  10//5 9//5 11//5
f  12//6 13//6 14//6
f  14//7 13//7 15//7
f  7//8 6//8 16//8
f  17//9 18//9 19//9
f  19//9 18//9 20//9
f  21//9 22//9 23//9
f  23//9 22//9 24//9
f  23//9 24//9 25//9
f  25//9 24//9 26//9
f  25//9 26//9 27//9
f  27//9 26//9 28//9
f  27//9 28//9 29//9
f  29//9 28//9 30//9
f  29//9 30//9 31//9
f  31//10 30//10 32//10
f  31//9 33//9 29//9
f  34//11 19//11 35//11
f  35//12 19//12 20//12
f  35//13 20//13 36//13
f  37//14 31//14 38//14
f  38//15 31//15 39//15
f  39//16 31//16 32//16
f  39//17 32//17 40//17
f  41//18 42//18 43//18
f  43//19 42//19 44//19
f  43//20 44//20 45//20
f  43//21 45//21 46//21
f  4//22 3//22 47//22
f  4//23 47//23 15//23
f  15//24 47//24 48//24
f  48//25 47//25 49//25
f  15//26 48//26 14//26
f  5//27 7//27 2//27
f  5//28 2//28 1//28
f  9//29 8//29 50//29
f  50//30 8//30 51//30
f  50//31 51//31 52//31
f  50//32 52//32 53//32
f  53//33 52//33 54//33
f  5//34 55//34 6//34
f  6//35 55//35 56//35
f  6//36 56//36 57//36
f  57//37 56//37 58//37
f  57//38 58//38 59//38
f  59//39 58//39 60//39
f  59//40 60//40 61//40
f  61//41 60//41 62//41
f  61//42 62//42 63//42
f  62//43 64//43 65//43
f  66//44 56//44 67//44
f  67//45 56//45 68//45
f  66//46 69//46 56//46
f  56//47 69//47 11//47
f  56//48 11//48 58//48
f  58//49 11//49 70//49
f  11//50 69//50 10//50
f  71//51 72//51 68//51
f  68//52 72//52 67//52
f  67//53 72//53 73//53
f  67//54 73//54 66//54
f  66//55 73//55 69//55
f  74//56 75//56 76//56
f  74//57 76//57 77//57
f  75//58 78//58 76//58
f  74//59 77//59 79//59
f  70//60 80//60 60//60
f  60//61 80//61 62//61
f  70//62 60//62 58//62
f  71//63 8//63 72//63
f  72//64 8//64 10//64
f  72//65 10//65 73//65
f  73//66 10//66 69//66
f  81//67 9//67 50//67
f  81//68 79//68 9//68
f  56//69 55//69 68//69
f  68//70 55//70 8//70
f  68//71 8//71 71//71
f  81//72 50//72 13//72
f  13//73 50//73 53//73
f  13//74 53//74 15//74
f  15//75 53//75 54//75
f  15//76 54//76 4//76
f  4//77 54//77 52//77
f  4//78 52//78 1//78
f  1//79 52//79 51//79
f  1//80 51//80 5//80
f  55//81 5//81 8//81
f  8//82 5//82 51//82
f  82//83 83//83 84//83
f  83//84 82//84 85//84
f  85//85 82//85 86//85
f  85//86 86//86 39//86
f  87//87 88//87 89//87
f  89//88 88//88 36//88
f  89//89 36//89 90//89
f  79//90 91//90 74//90
f  74//91 91//91 92//91
f  74//92 92//92 75//92
f  75//93 92//93 93//93
f  81//94 94//94 79//94
f  79//95 94//95 91//95
f  95//96 96//96 97//96
f  97//97 96//97 37//97
f  97//98 37//98 90//98
f  90//99 37//99 38//99
f  96//96 95//96 98//96
f  98//96 95//96 99//96
f  98//96 99//96 100//96
f  100//100 99//100 101//100
f  100//96 102//96 98//96
f  90//101 36//101 97//101
f  62//102 80//102 64//102
f  64//103 80//103 76//103
f  64//104 76//104 78//104
f  64//105 78//105 65//105
f  65//106 78//106 75//106
f  65//107 75//107 103//107
f  103//108 75//108 40//108
f  40//109 75//109 93//109
f  40//110 93//110 39//110
f  93//111 85//111 39//111
f  103//112 104//112 65//112
f  65//113 104//113 62//113
f  62//114 104//114 34//114
f  62//115 34//115 63//115
f  63//116 34//116 35//116
f  77//117 70//117 9//117
f  9//118 70//118 11//118
f  70//119 77//119 76//119
f  70//120 76//120 80//120
f  105//121 106//121 107//121
f  105//122 107//122 108//122
f  106//123 105//123 109//123
f  109//124 105//124 110//124
f  109//125 110//125 87//125
f  87//126 110//126 88//126
f  108//127 107//127 42//127
f  108//128 42//128 111//128
f  111//129 42//129 41//129
f  79//130 77//130 9//130
f  13//131 12//131 94//131
f  13//132 94//132 81//132
f  112//133 113//133 114//133
f  114//134 113//134 115//134
f  116//135 117//135 118//135
f  117//136 116//136 17//136
f  17//137 116//137 18//137
f  118//138 119//138 116//138
f  88//139 120//139 36//139
f  121//140 120//140 88//140
f  88//141 110//141 121//141
f  121//142 110//142 122//142
f  122//143 110//143 105//143
f  123//144 43//144 46//144
f  107//145 124//145 42//145
f  125//146 106//146 109//146
f  109//147 87//147 126//147
f  89//148 90//148 38//148
f  87//149 89//149 126//149
f  82//150 127//150 126//150
f  126//151 127//151 109//151
f  109//152 127//152 128//152
f  109//153 128//153 125//153
f  125//154 128//154 84//154
f  125//155 84//155 106//155
f  39//156 86//156 38//156
f  38//157 86//157 89//157
f  89//158 86//158 126//158
f  126//159 86//159 82//159
f  84//160 127//160 82//160
f  127//161 84//161 128//161
f  105//162 16//162 122//162
f  122//163 16//163 57//163
f  122//164 57//164 121//164
f  121//165 57//165 59//165
f  121//166 59//166 120//166
f  120//167 59//167 61//167
f  120//168 61//168 63//168
f  120//169 63//169 36//169
f  36//170 63//170 35//170
f  16//171 105//171 7//171
f  107//172 94//172 124//172
f  124//173 94//173 12//173
f  124//174 12//174 14//174
f  124//175 14//175 42//175
f  42//176 14//176 44//176
f  44//177 14//177 48//177
f  44//178 48//178 45//178
f  45//179 48//179 49//179
f  45//180 49//180 129//180
f  45//181 129//181 46//181
f  46//182 129//182 123//182
f  123//183 129//183 47//183
f  123//184 47//184 43//184
f  43//185 47//185 130//185
f  3//186 43//186 130//186
f  43//187 3//187 41//187
f  41//188 3//188 2//188
f  41//189 2//189 111//189
f  111//190 2//190 108//190
f  108//191 2//191 7//191
f  108//192 7//192 105//192
f  83//193 91//193 84//193
f  84//194 91//194 94//194
f  84//195 94//195 107//195
f  84//196 107//196 106//196
f  85//197 93//197 83//197
f  83//198 93//198 92//198
f  83//199 92//199 91//199
f  129//200 49//200 47//200
f  130//201 47//201 3//201
f  16//202 6//202 57//202
f  131//203 114//203 132//203
f  132//203 114//203 22//203
f  22//203 114//203 115//203
f  22//204 115//204 40//204
f  40//205 115//205 17//205
f  40//206 17//206 103//206
f  103//207 17//207 19//207
f  115//203 118//203 17//203
f  17//203 118//203 117//203
f  40//208 24//208 22//208
f  103//209 19//209 104//209
f  104//210 19//210 34//210
f  40//211 32//211 30//211
f  40//212 30//212 28//212
f  40//213 28//213 26//213
f  40//214 26//214 24//214
f  133//215 132//215 21//215
f  21//215 132//215 22//215
f  134//216 133//216 112//216
f  112//216 133//216 21//216
f  112//216 21//216 113//216
f  113//216 21//216 100//216
f  113//216 100//216 18//216
f  18//217 100//217 101//217
f  18//218 101//218 20//218
f  21//216 23//216 100//216
f  113//216 18//216 119//216
f  119//216 18//216 116//216
f  100//219 23//219 102//219
f  102//219 23//219 25//219
f  102//220 25//220 98//220
f  98//220 25//220 27//220
f  98//221 27//221 96//221
f  96//221 27//221 29//221
f  96//222 29//222 37//222
f  37//223 29//223 33//223
f  37//224 33//224 31//224
f  36//225 20//225 97//225
f  97//226 20//226 95//226
f  95//227 20//227 99//227
f  99//228 20//228 101//228
f  132//9 133//9 131//9
f  131//9 133//9 134//9
f  118//229 115//229 119//229
f  119//9 115//9 113//9
f  134//230 112//230 131//230
f  131//231 112//231 114//231

